<svg id="Layer_1" data-name="Layer 1" xmlns="http://www.w3.org/2000/svg" viewBox="0 0 83 39"><defs><style>.cls-1{fill:#a0aec0;}</style></defs><path class="cls-1" d="M81.37,8.17c-.77,1.88-2.15,2.6-3.81,2A2.55,2.55,0,0,1,78,5.24c1.65-.26,2.62.37,3.34,2.16Z"/><path class="cls-1" d="M6.61,20.59c-.68,0-1.34,0-2,0s-.72.22-.67.74a16.08,16.08,0,0,0,2.67,7.19c.49.73.87-.07,1.28,0L9,30.42l-.59.28A13.3,13.3,0,0,0,14,34.25c-.34-.49-.7-1-1-1.48s-.67-1-1-1.56c-.61-1.07-.5-1.58.61-2.08.25-.11.83.23,1.09.52s.53,1,.89,1.42c1.12,1.35,2.28,2.67,3.44,4a5.29,5.29,0,0,0,.77.55V31.34a14,14,0,0,1,1.84.26c.17,0,.34.41.36.63,0,.84,0,1.69,0,2.53a2.54,2.54,0,0,0,.21.68,1.85,1.85,0,0,0,.6-.28c1-1,1.91-2,2.9-3a2.54,2.54,0,0,1,1.1-.66c.68-.19,1.39-.25,2.3-.41l-2,3.07a13.19,13.19,0,0,0,5.25-3.38l-.71-.66a18.82,18.82,0,0,0,6.55-4.72c-.07.22-.12.44-.2.66a18.34,18.34,0,1,1,.52-11.36,2.66,2.66,0,0,1-.05,1.63A35.49,35.49,0,0,1,35.58,20a1.5,1.5,0,0,1-1.06.54c-1,.07-1.94,0-2.91,0-.47,0-.73.14-.71.64a5,5,0,0,1-.06.54c-.19,1.7-.62,2-2.48,1.85.08-.75.15-1.51.26-2.26.08-.56-.11-.79-.7-.78-1.76,0-3.52,0-5.29,0h-.79l-.31-2.18h2.09c1.43,0,2.86,0,4.29,0,.53,0,.76-.17.65-.73-.29-1.45-.56-2.9-.83-4.35-.12-.61-.39-.73-1-.59a46.69,46.69,0,0,1-4.81.88c-.75.09-.94.34-.91,1,.05,1.1,0,2.19,0,3.27-.14,0-.19,0-.24,0-1.94-.59-1.93-.59-1.94-2.64s.22-1.47-1.61-1.77a38.7,38.7,0,0,1-3.83-.76c-.73-.2-1,0-1.15.67-.08.48-.26.94-.36,1.42s-.33.58-.76.45-1-.28-1.59-.45c.23-.86.39-1.68.66-2.46.19-.54.05-.77-.44-1a19.42,19.42,0,0,1-2.15-1.17c-.41-.26-.65-.24-.93.18A16.43,16.43,0,0,0,4,17.51c-.09.68.12.91.81.91,1.67,0,1.67,0,1.84,1.68C6.62,20.23,6.61,20.35,6.61,20.59ZM32.87,10c-1,.53-2,1-2.94,1.56a.65.65,0,0,0-.17.57c.35,1.88.74,3.75,1.09,5.63.08.43.26.61.7.61,1.22,0,2.45,0,3.68,0,.55,0,.74-.25.64-.76-.23-1.07-.4-2.16-.72-3.21A13.68,13.68,0,0,0,32.87,10Zm-6.23.54a17.85,17.85,0,0,0-5.41-6.81c-.12.1-.16.11-.16.13,0,2.34-.05,4.69,0,7,0,.15.32.45.46.43C23.15,11.14,24.8,10.87,26.64,10.58Zm-13.21-.2a6.54,6.54,0,0,0,.8.28c1.25.24,2.51.45,3.76.69.66.13.85-.14.84-.77,0-2,0-4,0-6,0-.22-.05-.43-.09-.8A17.85,17.85,0,0,0,13.43,10.38ZM8.54,8.18l2.57,1.38,3.42-5.2A15.85,15.85,0,0,0,8.54,8.18Zm22.83.07a15.62,15.62,0,0,0-5.81-3.77l3.32,5.09Z"/><path class="cls-1" d="M18,22.1a13.46,13.46,0,0,0,1.2.92,14.43,14.43,0,0,0,14.2.76,9.11,9.11,0,0,0,4.37-4.56,2.67,2.67,0,0,1,.4-.63,6.35,6.35,0,0,1-.65,3.21,12.55,12.55,0,0,1-4.62,5.31A18,18,0,0,1,15,28.43a10.54,10.54,0,0,1-1.89-1.16.58.58,0,0,0-.91.05,15.85,15.85,0,0,1-1.36,1.24c-.24.19-.66.44-.83.35a1.29,1.29,0,0,1-.51-.85c-.43-2.33-.83-4.68-1.23-7-.24-1.36-.48-2.71-.7-4.08-.12-.74.17-1,.9-.84q5.55,1.47,11.09,3c.79.21.88.68.27,1.26S18.66,21.46,18,22.1Z"/><path class="cls-1" d="M49.3,14.31c.55-.44,1-.81,1.47-1.15a5.43,5.43,0,0,1,4.4-1.05,3.79,3.79,0,0,1,3.2,3.45,25,25,0,0,1,.13,3.13c0,2.76,0,5.52,0,8.27,0,.62-.15.88-.81.85q-1.65-.07-3.3,0c-.62,0-.78-.22-.77-.8,0-2.86,0-5.73,0-8.59a5.43,5.43,0,0,0-.07-1,1.32,1.32,0,0,0-1.34-1.14,3.26,3.26,0,0,0-2.58,1.27,1.3,1.3,0,0,0-.14.8c0,2.87,0,5.73,0,8.59,0,.68-.21.89-.88.86-1.07,0-2.14,0-3.21,0-.51,0-.73-.14-.72-.69q0-7,0-14.1c0-.53.17-.72.7-.7.95,0,1.89,0,2.84,0,.56,0,.77.21.81.74A12.37,12.37,0,0,0,49.3,14.31Z"/><path class="cls-1" d="M65.06,21.26a3.19,3.19,0,0,0,3.09,3.31,8.69,8.69,0,0,0,4.51-1L73.82,23c.15,1.1.31,2.09.42,3.09a.71.71,0,0,1-.36.5,10.83,10.83,0,0,1-9.87.64,5.94,5.94,0,0,1-3.35-3.88,10.41,10.41,0,0,1,.05-6.55A7,7,0,0,1,68.15,12c3.27.28,5.44,2.38,6,5.86.14.85.12,1.72.18,2.59,0,.58-.2.8-.8.8-2.5,0-5,0-7.51,0Zm4.67-2.71c-.12-1.22-.24-2.37-1.3-3.09a1.77,1.77,0,0,0-2.15,0A3.57,3.57,0,0,0,65,18.55Z"/><path class="cls-1" d="M76.17,20.06c0-2.33,0-4.65,0-7,0-.6.17-.81.78-.79,1,0,2.09.06,3.14,0,.73,0,1,.2,1,.94,0,4.26,0,8.52,0,12.78a6.18,6.18,0,0,1,0,1.22c0,.21-.34.52-.53.53-1.25,0-2.5,0-3.74,0-.61,0-.55-.39-.55-.78Z"/></svg>